<svg width="94" height="91" viewBox="0 0 54 51" fill="none" xmlns="http://www.w3.org/2000/svg">
<path fill-rule="evenodd" clip-rule="evenodd" d="M24.4056 41.2685V38.5675V37.4962L25.371 37.4811V41.1478L26.4268 41.1629L26.4419 41.9777L24.4056 41.9928V41.2685ZM26.8944 37.5113L27.8749 37.4962V41.3288H28.3123C28.5385 41.2987 28.3726 41.3288 28.4631 41.2836C28.5989 40.846 28.448 38.0243 28.5084 37.6924C28.5084 37.6773 28.5084 37.6622 28.5084 37.632C28.5235 37.6169 28.5235 37.6019 28.5385 37.5868L29.4587 37.4811C29.5341 37.8131 29.5642 41.2383 29.3832 41.6457C29.2022 42.0682 28.8251 42.0531 28.252 42.0531C26.9246 42.0531 26.8944 41.9173 26.8944 40.4537C26.8944 39.488 26.8642 38.477 26.8944 37.5113ZM22.9274 40.5442H23.8173C23.9983 42.0531 23.5156 42.0682 22.2184 42.0531C20.9363 42.038 21.2229 40.9667 21.2229 39.835C21.238 38.8542 20.9665 37.5113 21.9771 37.4057C23.3648 37.285 23.8777 37.3604 23.8173 38.7637H22.9123C22.8821 38.0696 23.033 38.0093 22.2486 38.0847L22.2034 41.1025C22.2335 41.3892 22.2335 41.3892 22.5352 41.3892C23.1084 41.3892 22.852 41.0572 22.9274 40.5442ZM48.3436 32.7885L48.3134 23.3578H50.4251L50.4855 37.5264L50.757 37.7075C51.1793 37.9036 52.4765 38.311 52.7631 38.5675L52.7782 41.8871L50.5911 40.8158C49.8972 40.4688 49.0676 40.1368 48.3737 39.7747L48.3436 32.7885ZM42.8078 23.3276L44.9497 23.3427C44.9799 27.3564 45.0553 31.6719 45.0101 35.6403C45.2816 35.8515 46.8503 36.2137 47.333 36.44L47.3631 39.3522C46.986 39.2466 46.6542 39.0655 46.262 38.9146C45.8698 38.7637 45.5531 38.6581 45.1609 38.5072C44.7385 38.3261 43.1548 37.8735 42.9134 37.6924L42.8078 23.3276ZM1.74972 23.3729H6.18436L6.19944 26.4511L3.86145 26.6321V30.8118L6.01844 30.4044V33.2864C5.8676 33.5429 5.23408 33.6033 4.94749 33.6787C4.7514 33.7391 3.96704 33.9352 3.84637 34.0258L3.8162 40.8611C3.49944 41.0271 3.15251 41.2081 2.77542 41.3741C2.47374 41.525 2.02123 41.8268 1.73464 41.9022L1.74972 23.3729ZM23.3196 35.3838V25.5457L21.7207 25.5608L21.7056 23.3126L27.0754 23.2975L27.0905 25.5005H25.4916C25.4162 26.2549 25.4615 33.2109 25.4765 34.5539C25.4765 35.4592 25.6123 35.2781 24.7374 35.3083C24.2698 35.3234 23.7872 35.3989 23.3196 35.3838ZM10.7698 39.3673L11.2978 39.2013C11.4939 39.0655 11.9916 38.9297 12.2631 38.8542C13.319 38.5826 12.7156 38.5525 13.8771 39.5634C17.286 42.5511 21.0268 44.3768 25.9441 44.6333C29.2777 44.8144 32.219 44.1807 34.8285 43.0188C36.6084 42.2191 39.067 40.6951 40.3944 39.3371C40.6508 39.0806 40.8168 38.8995 41.0732 38.6581L42.6419 39.1409C42.8078 39.2164 43.0492 39.2767 43.2151 39.3673C44.8894 39.7445 50.048 42.3398 51.5112 43.1697L53.9849 44.6333L54 22.3318L46.3525 22.3016H43.0341H35.3413L28.8101 22.2865L26.2458 22.3016L25.2201 22.2865L13.1078 22.3016H12.6553H9.02011H7.64749L0.0150838 22.3167L0 44.6333C0.196089 44.6032 2.0514 43.396 2.48883 43.1546C3.36369 42.6718 4.16313 42.2493 5.11341 41.7664C5.9581 41.3439 6.95363 40.846 7.85866 40.4989C8.70335 40.167 9.89497 39.5785 10.7698 39.3673Z" fill="#23262B"/>
<path fill-rule="evenodd" clip-rule="evenodd" d="M14.827 11.7544C15.0684 11.4828 15.717 10.9094 16.2751 10.8038C16.7879 10.6831 17.9494 10.7887 18.417 10.9396C16.1393 11.4224 15.6114 11.513 14.1935 12.9917C14.0879 13.1124 14.0125 13.1426 13.8918 13.2633L12.9114 14.3044C12.9114 14.3044 12.8963 14.3195 12.8812 14.3346L12.7304 14.3497L14.827 11.7544ZM35.8991 11.9053H35.9896L36.1253 11.9355C36.2309 11.8751 36.0801 11.9204 36.246 11.8902C36.2762 11.8902 36.3968 11.8751 36.4119 11.8751C36.5477 11.8751 36.6834 11.8751 36.8192 11.86H38.6292C38.765 11.8751 38.7499 11.8298 38.7499 11.9355C38.8404 11.8902 38.8253 11.86 38.8253 11.9656C39.0516 12.0713 38.9008 11.9807 38.946 12.1014C39.0667 12.1618 38.946 12.0713 39.127 12.2222L40.3488 13.4293L40.9823 14.3346C41.1633 14.5459 41.1784 14.5308 41.2991 14.7722C41.4047 14.9834 41.465 15.0438 41.6008 15.2249C41.9779 15.753 42.3399 16.5527 42.6566 17.1864C42.8527 17.5788 42.9583 17.8956 43.1242 18.2879C43.3656 18.8613 43.3505 18.9066 43.3203 19.5856C43.2751 20.5211 43.1393 21.3812 43.0337 22.3016H46.3522C46.2466 19.48 45.4622 17.0808 44.4365 14.8476C44.0745 14.0479 42.9734 12.2523 42.4153 11.5884C42.2946 11.4375 42.2494 11.4224 42.1438 11.2866C41.9477 11.0301 41.827 10.8189 41.6309 10.6076C41.2086 10.155 40.8466 9.77773 40.4544 9.40051L39.2326 8.29901C38.7952 7.96705 38.3427 7.60491 37.86 7.27295C33.2443 4.24006 28.3421 3.30454 22.7762 4.42113C21.66 4.64746 20.1667 5.11522 19.2164 5.56789C18.1153 6.1111 17.0745 6.60904 16.1846 7.25786C15.2494 7.92178 14.3896 8.5857 13.56 9.34015C12.2175 10.5774 10.3924 13.1577 9.57785 14.8024C8.53707 16.945 7.75271 19.5554 7.64713 22.3016H9.01975C9.065 21.3963 9.56277 18.0314 9.98511 17.4731C10.151 17.2619 10.9354 16.8545 11.2823 16.7941C11.4935 18.5445 12.7454 20.2495 12.7907 20.5966C12.8209 20.8229 12.67 21.9395 12.6549 22.3016H13.1075C13.1225 21.9093 13.1527 21.4265 13.213 21.0643C13.2583 20.7625 13.4242 20.6267 13.8315 20.3702C15.2644 19.4498 15.4454 19.2235 17.165 18.303C19.3069 17.1714 18.5225 17.3072 19.7142 18.0767L22.0672 19.7516C22.3237 19.9477 22.5801 20.0835 22.8516 20.2797L25.2198 21.9848V22.2865L26.2454 22.3016C26.3963 21.9697 26.9242 21.8188 27.3918 21.6679L30.0767 20.7776C30.5292 20.6267 31.027 20.4306 31.4946 20.34L29.8052 21.517C29.6393 21.6528 29.6393 21.6226 29.4734 21.7433C29.232 21.8942 28.9605 22.0753 28.8097 22.2865L35.341 22.3016C35.2806 22.1206 34.979 21.7433 34.8734 21.5773L34.3907 20.9285C34.1644 20.7625 33.9834 20.4155 33.7723 20.159C32.8069 19.0273 32.9728 19.8119 33.4103 17.1261C33.6667 15.4965 33.8628 13.8819 34.0739 12.2071L35.8991 11.9053ZM40.8617 13.4896C40.3639 12.8106 40.2583 12.8106 39.9868 12.4485C39.6399 12.026 39.3834 11.8902 38.9913 11.5582C38.6745 11.2866 38.4935 10.7887 38.2672 10.3813C38.1013 10.0946 37.8449 9.49104 37.4678 9.20435L36.9097 8.46499C36.7438 8.28392 36.6834 8.3141 36.8192 8.20847C36.8192 8.22356 36.8343 8.23865 36.8494 8.23865L37.513 8.69132C37.8449 8.88748 38.1164 9.18926 38.5086 9.46086C38.8706 9.71738 40.7561 11.6488 41.0728 12.0411C41.7667 12.9162 42.7622 14.5459 43.26 15.587C43.622 16.3716 44.346 18.0616 44.4667 18.982C44.1952 18.8311 44.0896 18.635 43.8181 18.4087C43.5315 18.1672 43.5616 18.1069 43.3806 17.7146C42.9583 16.779 41.5253 13.8065 40.8617 13.4896ZM33.6063 12.2976C33.3952 14.2893 33.1086 16.4169 32.7466 18.3634C32.5957 19.1782 32.7918 19.1027 32.0376 19.3442C31.1175 19.646 25.7477 21.5773 25.5365 21.5773C25.3103 21.5773 20.6343 18.1069 19.9555 17.6391C18.9901 16.9903 18.96 17.2921 19.141 16.0095C19.2164 15.4965 19.2767 14.9684 19.3823 14.4855C19.5935 13.5198 19.8499 12.6446 20.0762 11.7091C20.2723 10.8491 20.2119 10.9849 20.77 10.7133C21.1471 10.5322 21.5695 10.3511 21.9918 10.1851C24.0281 9.40051 25.0237 8.93275 27.3013 8.51025C28.1158 8.34427 27.9801 8.32919 28.6438 8.63097C29.5488 9.06855 32.113 10.7585 32.8672 11.3923C33.5158 11.9204 33.6516 11.9204 33.6063 12.2976ZM10.2717 16.7036C10.5432 15.5719 11.9611 13.3538 12.5192 12.6446C13.032 11.9656 13.4091 11.4979 13.9672 10.9396C14.4047 10.502 15.008 9.76264 15.5812 9.46086C15.536 9.70229 15.4756 9.92862 15.4454 10.17C15.4002 10.5925 15.5058 10.4869 15.2494 10.7283C13.8013 12.0411 12.7454 13.3387 11.8555 15.1796C11.7801 15.3154 11.403 16.1755 11.3427 16.2358C11.222 16.3565 10.4678 16.6432 10.2717 16.7036ZM15.8829 10.2757C15.9734 10.0041 16.0035 9.61175 16.1091 9.32506C16.2751 8.8573 16.2901 8.8573 16.622 8.63097C17.2404 8.20847 17.3309 8.11794 18.07 7.71054C19.0203 7.18242 20.1667 6.56377 21.3734 6.21672C24.2091 5.40191 26.6376 5.06996 29.7901 5.53772L29.4734 5.8395C28.9002 6.27708 28.1158 7.25786 27.8745 7.93687C25.9438 8.1783 23.7566 8.94783 22.0823 9.64193C21.6449 9.80791 21.1924 10.0493 20.77 10.2153C19.9404 10.5473 20.2873 10.5624 19.3371 10.3964C17.4818 10.0795 17.1801 10.336 15.8829 10.2757Z" fill="#262626"/>
<path fill-rule="evenodd" clip-rule="evenodd" d="M19.6998 16.6432C19.6847 16.1905 19.8356 15.5266 19.9261 15.1192C20.1373 14.1233 20.4238 11.5733 21.1479 11.0904C21.706 10.7132 25.7183 9.14394 26.0954 9.17412C25.9445 9.23448 25.1903 9.68715 25.0093 9.80786C24.6322 10.0493 24.2853 10.3058 23.9535 10.517C22.249 11.5582 21.6155 12.3428 20.7708 14.2139C20.6803 14.41 20.5596 14.6062 20.4842 14.8023C20.4088 14.9683 20.2881 15.255 20.2278 15.4361L19.7903 16.5225C19.7451 16.5979 19.7451 16.5979 19.6998 16.6432ZM33.6071 12.2975C33.6523 11.9203 33.5166 11.9203 32.868 11.3922C32.1138 10.7585 29.5495 9.0685 28.6445 8.63092C27.9808 8.32914 28.1166 8.34422 27.3021 8.5102C25.0244 8.9327 24.0289 9.40046 21.9926 10.1851C21.5702 10.3511 21.1479 10.5321 20.7708 10.7132C20.2127 10.9848 20.273 10.849 20.0769 11.7091C19.8507 12.6446 19.5942 13.5198 19.3831 14.4855C19.2775 14.9683 19.2171 15.4964 19.1417 16.0094C18.9607 17.292 18.9909 16.9902 19.9562 17.6391C20.635 18.1068 25.311 21.5773 25.5373 21.5773C25.7484 21.5773 31.1183 19.6459 32.0384 19.3441C32.7926 19.1027 32.5965 19.1781 32.7473 18.3633C33.1093 16.4169 33.3959 14.2893 33.6071 12.2975Z" fill="white"/>
<path fill-rule="evenodd" clip-rule="evenodd" d="M9.77411 25.3194C10.1814 25.3043 10.6339 25.2289 11.0261 25.3194C11.192 25.7872 11.0864 32.8036 11.0713 34.237C11.0562 36.1533 11.2523 35.8817 10.1059 36.2589C9.32159 36.5155 9.5026 36.0477 9.53276 34.1012L9.56293 28.1411C9.57802 27.3413 9.42718 25.8324 9.77411 25.3194ZM13.2585 29.1369C13.3037 27.9449 13.4244 24.9422 12.9568 24.0821C12.5797 23.3729 12.2629 23.1164 11.2222 23.1164C8.28081 23.1013 7.43612 22.709 7.43612 27.447C7.43612 29.2426 7.40595 30.9929 7.40595 32.7885C7.39086 34.0409 7.24003 37.0888 7.61712 38.0395C7.9188 38.7939 8.3864 39.1259 9.33668 38.7637C11.6596 37.8433 13.168 37.9489 13.2132 34.5539C13.2434 32.7734 13.183 30.9023 13.2585 29.1369Z" fill="#FDC624"/>
<path fill-rule="evenodd" clip-rule="evenodd" d="M37.5438 25.5004C37.5438 24.8818 38.0416 25.0025 38.6298 25.0478C39.203 25.093 39.0673 25.5608 39.0673 26.1191L39.0974 29.9366L37.574 29.8008L37.5438 25.5004ZM37.5891 31.9736L39.1125 32.1849L39.1578 36.6663L41.2997 37.2095C41.2846 35.7006 41.36 25.9984 41.1639 24.9572C40.9226 23.6294 40.4097 23.1164 38.9466 23.1164C37.5136 23.1164 36.2918 22.8749 35.7187 23.9613C35.2511 24.8214 35.4019 26.6321 35.4019 27.7638C35.4019 30.4345 35.3567 33.2411 35.4472 35.9118C35.8243 35.9873 36.2013 36.0476 36.5483 36.1231C36.8801 36.1834 37.3779 36.3343 37.6041 36.3645L37.5891 31.9736Z" fill="#FDC624"/>
<path fill-rule="evenodd" clip-rule="evenodd" d="M17.0898 34.4633C16.8485 34.2822 16.939 33.7994 16.939 33.4221L16.9692 29.8309C16.9692 29.0463 16.9842 28.2315 16.9842 27.4469C16.9993 26.6924 16.8787 25.6815 17.0898 25.0779C17.4066 24.9572 18.0552 24.9421 18.4323 25.0175C18.6435 25.44 18.5077 31.868 18.4926 33.226C18.4926 33.6636 18.5831 34.2218 18.2513 34.3576C17.9798 34.4633 17.2558 34.5991 17.0898 34.4633ZM20.7099 27.13C20.7099 25.8776 20.8608 24.2933 20.0161 23.4936C19.5032 23.0258 18.5831 23.1163 17.7535 23.1163C15.8228 23.1163 14.8574 23.2069 14.8423 26.0587L14.8122 32.5922C14.8122 33.7692 14.5708 35.8515 15.4608 36.4098C16.0943 36.8172 16.6222 36.6059 17.301 36.4399C17.9194 36.274 18.568 36.2589 19.1563 36.0627C20.7401 35.5497 20.6647 33.7994 20.6647 32.2905L20.7099 27.13Z" fill="#FDC624"/>
<path fill-rule="evenodd" clip-rule="evenodd" d="M30.2432 33.5429L30.2282 30.1177C32.0684 30.1479 31.7969 29.6801 31.7818 33.1657C31.7818 33.7844 31.3594 33.6335 30.2432 33.5429ZM30.2432 28.2769L30.2131 25.0629H31.4499C31.7064 25.3949 31.6309 25.5156 31.6309 26.0588C31.6309 26.4813 31.646 26.9038 31.646 27.3112C31.646 28.5635 31.5857 28.3674 30.2432 28.2769ZM28.1013 35.2027C28.403 35.3234 30.5147 35.3083 31.3142 35.3989C32.5661 35.5498 33.2751 35.5799 33.7427 34.569C34.0896 33.8296 33.9538 32.2754 33.9388 31.3399C33.9237 29.8461 33.5466 29.8008 32.9734 28.8955C33.2902 28.0807 33.803 28.126 33.803 26.6925C33.803 25.6966 33.8332 24.7762 33.3957 24.067C32.8829 23.2824 32.37 23.2975 31.1483 23.2975C30.1376 23.2975 29.0818 23.2673 28.0712 23.3126C28.0561 23.886 28.0108 34.7953 28.1013 35.2027Z" fill="#FDC624"/>
<path fill-rule="evenodd" clip-rule="evenodd" d="M1.73454 41.9022C2.02114 41.8268 2.47365 41.525 2.77533 41.3741C3.15242 41.2081 3.49935 41.0271 3.81611 40.8611L3.84628 34.0258C3.96695 33.9352 4.7513 33.7391 4.94739 33.6787C5.23399 33.6033 5.86751 33.5429 6.01834 33.2864V30.4044L3.86136 30.8118V26.6322L6.19935 26.4511L6.18427 23.3729H1.74963L1.73454 41.9022Z" fill="#FDC624"/>
<path fill-rule="evenodd" clip-rule="evenodd" d="M48.3736 39.7747C49.0674 40.1368 49.897 40.4688 50.5909 40.8158L52.7781 41.8872L52.763 38.5676C52.4764 38.3111 51.1792 37.9037 50.7568 37.7075L50.4853 37.5264L50.425 23.3578H48.3132L48.3434 32.7885L48.3736 39.7747Z" fill="#FDC624"/>
<path fill-rule="evenodd" clip-rule="evenodd" d="M42.9132 37.6923C43.1545 37.8734 44.7383 38.3261 45.1607 38.5071C45.5529 38.658 45.8696 38.7636 46.2618 38.9145C46.654 39.0654 46.9858 39.2465 47.3629 39.3521L47.3328 36.4399C46.8501 36.2136 45.2814 35.8515 45.0099 35.6402C45.0551 31.6718 44.9797 27.3563 44.9495 23.3427L42.8076 23.3276L42.9132 37.6923Z" fill="#FDC624"/>
<path fill-rule="evenodd" clip-rule="evenodd" d="M15.8835 10.2756C17.1807 10.336 17.4823 10.0795 19.3376 10.3964C20.2879 10.5623 19.941 10.5472 20.7706 10.2153C21.193 10.0493 21.6455 9.80788 22.0829 9.6419C23.7572 8.94781 25.9443 8.17827 27.8751 7.93685C28.1164 7.25784 28.9008 6.27706 29.474 5.83948L29.7907 5.53769C26.6382 5.06994 24.2097 5.40189 21.374 6.2167C20.1673 6.56375 19.0209 7.1824 18.0706 7.71051C17.3315 8.11791 17.241 8.20845 16.6226 8.63094C16.2907 8.85728 16.2756 8.85728 16.1097 9.32504C16.0041 9.61173 15.974 10.004 15.8835 10.2756Z" fill="white"/>
<path fill-rule="evenodd" clip-rule="evenodd" d="M13.1076 22.3016L25.2199 22.2865V21.9848L22.8518 20.2797C22.5803 20.0835 22.3238 19.9477 22.0674 19.7516L19.7143 18.0767C18.5227 17.3072 19.3071 17.1714 17.1652 18.303C15.4456 19.2235 15.2646 19.4498 13.8317 20.3702C13.4244 20.6267 13.2585 20.7625 13.2132 21.0643C13.1529 21.4265 13.1227 21.9093 13.1076 22.3016Z" fill="white"/>
<path fill-rule="evenodd" clip-rule="evenodd" d="M23.3197 35.3837C23.7873 35.3988 24.27 35.3234 24.7376 35.3083C25.6125 35.2781 25.4767 35.4592 25.4767 34.5538C25.4616 33.2109 25.4164 26.2549 25.4918 25.5004H27.0907L27.0756 23.2974L21.7058 23.3125L21.7209 25.5608L23.3197 25.5457V35.3837Z" fill="#FDC624"/>
<path fill-rule="evenodd" clip-rule="evenodd" d="M34.3913 20.9284C34.5723 20.687 34.7533 20.4758 34.9343 20.2343C35.1002 20.008 35.2662 19.842 35.4321 19.6006C35.7488 19.1027 36.0505 18.6953 36.3371 18.2426C36.684 17.6843 37.8002 15.7076 37.8455 15.1192C37.6343 14.8476 37.3779 14.6665 37.1365 14.41C36.9103 14.1837 35.9298 13.2632 35.8544 13.052C35.6734 12.5691 36.0354 12.4333 35.8997 11.9052L34.0745 12.207C33.8634 13.8819 33.6673 15.4964 33.4109 17.126C32.9734 19.8119 32.8075 19.0272 33.7729 20.1589C33.984 20.4154 34.165 20.7625 34.3913 20.9284Z" fill="white"/>
<path fill-rule="evenodd" clip-rule="evenodd" d="M26.3517 48.3C25.1148 48.5414 23.9835 49.9296 23.5913 50.9707C25.0243 51.0763 25.6578 50.3219 26.4422 49.326C26.6684 49.0393 26.8042 48.6319 27.0003 48.4056C27.498 48.979 28.1617 51.0914 30.3941 50.9707C30.2734 50.5331 29.6248 49.6278 29.3232 49.3109C28.9461 48.8884 28.4031 48.4659 27.6187 48.3C28.4181 48.0133 28.6746 47.8322 29.0517 47.2135C29.3232 46.776 29.7304 45.9762 29.7304 45.2972C28.8857 45.3878 28.3729 45.9762 28.041 46.4591C27.8751 46.7005 27.6338 47.0174 27.4829 47.3041C27.3472 47.5606 27.1511 48.0434 27.0003 48.2245C26.8494 48.0434 26.6684 47.5908 26.5327 47.3493C26.1405 46.6251 25.2355 45.2369 24.255 45.3274C24.3757 46.0517 24.6019 46.6402 24.9187 47.1834C25.2958 47.802 25.6276 47.9831 26.3517 48.3Z" fill="#A3A597"/>
<path fill-rule="evenodd" clip-rule="evenodd" d="M9.01984 22.3016H12.655C12.6701 21.9394 12.821 20.8228 12.7908 20.5965C12.7455 20.2495 11.4936 18.5444 11.2824 16.7941C10.9355 16.8544 10.1511 17.2618 9.9852 17.4731C9.56285 18.0314 9.06509 21.3962 9.01984 22.3016Z" fill="white"/>
<path fill-rule="evenodd" clip-rule="evenodd" d="M31.1334 40.0614C31.3446 40.0463 31.5558 40.0161 31.7519 40.1066C31.8725 40.3782 31.8273 40.9365 31.782 41.2836L31.1334 41.2987V40.0614ZM31.1485 38.145C31.8273 38.13 31.7669 38.0998 31.7669 38.7637C31.7669 39.4427 31.8273 39.3673 31.1334 39.3522L31.1485 38.145ZM32.4457 39.5181C32.7172 39.1107 32.7474 39.2164 32.7323 38.5072C32.7323 38.0998 32.6569 37.798 32.4155 37.632C32.0988 37.4057 30.6357 37.466 30.153 37.4962V41.9777C32.491 42.0531 32.8077 42.204 32.8077 40.514C32.7926 39.6539 32.6569 39.835 32.4457 39.5181Z" fill="#FDC624"/>
<path fill-rule="evenodd" clip-rule="evenodd" d="M3.93673 17.956H1.85516L3.52947 19.2385L2.89595 21.1548C3.63505 20.8229 4.25349 20.1439 4.63058 20.0232C4.93226 20.2193 5.15852 20.3853 5.43002 20.5966L6.27472 21.1699L5.65628 19.1782C5.98813 19.0122 6.18422 18.816 6.51606 18.5746C6.80265 18.3785 7.08924 18.2276 7.33058 17.956H5.24902C5.21885 17.79 4.72109 16.1906 4.55516 15.9793L3.93673 17.956Z" fill="#23262B"/>
<path fill-rule="evenodd" clip-rule="evenodd" d="M48.7505 17.956H46.6689L48.3282 19.1782C48.1924 19.8119 47.8756 20.6117 47.7248 21.1699L47.8002 21.1096C47.8153 21.1096 47.8304 21.0945 47.8455 21.0794L47.9209 21.0341C48.6449 20.5815 48.8259 20.3551 49.3689 20.0232C49.8064 20.1439 50.6661 21.0191 51.0885 21.1699L50.455 19.1782L52.1293 17.9711L50.0477 17.956L49.4142 15.9944C49.2483 16.2208 48.8259 17.5788 48.7505 17.956Z" fill="#23262B"/>
<path fill-rule="evenodd" clip-rule="evenodd" d="M26.8943 37.5113C26.8641 38.477 26.8943 39.488 26.8943 40.4537C26.8943 41.9173 26.9245 42.0531 28.2518 42.0531C28.825 42.0531 29.2021 42.0682 29.3831 41.6457C29.5641 41.2383 29.534 37.8131 29.4585 37.4811L28.5384 37.5868C28.5233 37.6019 28.5233 37.6169 28.5083 37.632C28.5083 37.6622 28.5083 37.6773 28.5083 37.6924C28.4479 38.0243 28.5988 40.846 28.463 41.2836C28.3725 41.3288 28.5384 41.2987 28.3122 41.3288H27.8747V37.4962L26.8943 37.5113Z" fill="#FDC624"/>
<path fill-rule="evenodd" clip-rule="evenodd" d="M22.9276 40.5442C22.8521 41.0572 23.1086 41.3891 22.5354 41.3891C22.2337 41.3891 22.2337 41.3891 22.2035 41.1024L22.2488 38.0846C23.0331 38.0092 22.8823 38.0696 22.9125 38.7636H23.8175C23.8778 37.3604 23.365 37.2849 21.9773 37.4056C20.9667 37.5113 21.2382 38.8542 21.2231 39.835C21.2231 40.9666 20.9365 42.038 22.2186 42.0531C23.5158 42.0681 23.9985 42.0531 23.8175 40.5442H22.9276Z" fill="#FDC624"/>
<path fill-rule="evenodd" clip-rule="evenodd" d="M19.6998 16.6431C19.745 16.5979 19.745 16.5979 19.7903 16.5224L20.2277 15.436C20.288 15.2549 20.4087 14.9683 20.4841 14.8023C20.5595 14.6061 20.6802 14.41 20.7707 14.2138C21.6154 12.3428 22.2489 11.5581 23.9534 10.517C24.2852 10.3058 24.6322 10.0492 25.0093 9.80781C25.1903 9.6871 25.9445 9.23443 26.0953 9.17407C25.7182 9.1439 21.7059 10.7132 21.1478 11.0904C20.4238 11.5732 20.1372 14.1233 19.926 15.1191C19.8355 15.5265 19.6847 16.1905 19.6998 16.6431Z" fill="#E2E4D9"/>
<path fill-rule="evenodd" clip-rule="evenodd" d="M23.078 48.0284C21.9317 48.1038 20.6797 48.8432 20.0311 49.6278C20.4987 50.0955 21.8864 49.7032 22.354 49.4467C22.9121 49.16 23.6663 48.5716 23.9227 48.134C23.8171 47.7266 23.1384 46.6854 22.9121 46.444C22.5048 45.9762 22.0825 45.4632 21.1775 45.3274C21.2227 45.9008 21.5093 46.6402 21.7808 47.0023C21.992 47.2739 22.3389 47.6511 22.6708 47.802C22.8819 47.8926 22.9121 47.8624 23.078 48.0284Z" fill="#A3A597"/>
<path fill-rule="evenodd" clip-rule="evenodd" d="M33.4103 47.5003C33.9986 48.2095 36.1707 49.3713 37.4829 48.4962C37.3774 48.4207 37.317 48.3302 37.1964 48.2396C37.0908 48.1642 36.9852 48.0888 36.8645 47.9982C36.0047 47.4098 35.1751 47.3192 34.1042 47.289C35.0545 46.8213 35.7483 45.8103 35.7181 44.3467C34.5416 44.4825 33.4857 46.8213 33.4103 47.5003Z" fill="#A3A597"/>
<path fill-rule="evenodd" clip-rule="evenodd" d="M13.6054 44.3617C13.6054 44.3617 13.6205 44.3617 13.6205 44.3768H13.6356C13.6356 44.3768 13.4696 44.4673 13.6054 44.3617ZM13.6054 44.3617C12.9266 44.2711 12.7004 44.075 11.8557 44.1353C11.1618 44.1806 10.7546 44.3768 10.1965 44.5126C10.302 44.754 10.302 44.7087 10.5283 44.8596C11.7199 45.6292 13.2132 45.4632 14.3596 44.8747C14.4199 43.4111 14.073 41.8116 13.168 41.1628C12.7758 41.5702 12.7305 43.0942 13.4093 43.9995L13.6054 44.3617Z" fill="#A3A597"/>
<path fill-rule="evenodd" clip-rule="evenodd" d="M33.9388 49.7183C33.8483 49.326 33.0338 48.7828 32.6868 48.6017C32.0835 48.2547 31.6762 48.1189 30.8919 48.0284C30.8919 48.0133 30.922 47.9831 30.922 47.9982L31.6159 47.5908C32.2645 47.0627 32.7773 46.2177 32.8226 45.3274C31.2539 45.4783 30.0773 47.968 30.1075 48.1189C30.1377 48.4358 31.2086 49.2204 31.6008 49.4316C32.4002 49.8541 33.0036 49.8843 33.9388 49.7183Z" fill="#A3A597"/>
<path fill-rule="evenodd" clip-rule="evenodd" d="M19.9258 47.2739C19.5789 47.3343 19.232 47.2589 18.8398 47.3192C17.9348 47.4701 17.1806 47.9228 16.5169 48.4962C18.2063 49.4166 20.4085 47.8624 20.5744 47.5154C20.6498 47.3494 19.6392 44.5428 18.2666 44.3467C18.2817 45.0408 18.4174 45.7349 18.7191 46.2177C18.9152 46.5195 19.5186 47.2287 19.9258 47.2739Z" fill="#A3A597"/>
<path fill-rule="evenodd" clip-rule="evenodd" d="M43.2148 39.3672C43.0489 39.2767 42.8075 39.2163 42.6416 39.1409C42.717 39.2918 42.6869 39.2314 42.5813 39.4426C42.1288 40.3027 42.1137 42.1738 42.3249 42.7321C42.5511 43.3356 45.6131 43.2753 46.4427 41.8116C45.8394 41.6758 45.0701 41.6456 44.4366 41.7513C43.9539 41.8267 43.1997 42.0983 42.9131 42.3247C43.0036 42.0983 43.1394 42.0078 43.2299 41.7362C43.6824 40.4838 43.2299 39.8199 43.1997 39.5332C43.1545 39.2314 43.1846 39.6539 43.1997 39.4577L43.2148 39.3672Z" fill="#A3A597"/>
<path fill-rule="evenodd" clip-rule="evenodd" d="M40.3043 44.3315C40.3194 44.3315 40.3344 44.3466 40.3344 44.3617C40.3344 44.3768 40.3495 44.3768 40.3495 44.3768L40.3043 44.3315ZM39.6255 44.8747C40.9529 45.4028 42.0691 45.6593 43.3964 44.92C43.7283 44.7238 43.7132 44.7238 43.8037 44.5276C42.9892 44.256 42.1897 44.0146 41.2545 44.1655C40.9529 44.2108 40.6361 44.3315 40.3948 44.3617C40.4249 44.2259 40.3948 44.3164 40.4702 44.1806C40.4702 44.1806 40.5607 44.0599 40.5758 44.0448C40.6361 43.9543 40.7115 43.8486 40.7719 43.743C41.2998 42.8226 41.0434 41.9776 40.9076 41.1779C39.8819 41.4193 39.5802 43.9392 39.6255 44.8747Z" fill="#A3A597"/>
<path fill-rule="evenodd" clip-rule="evenodd" d="M16.6979 46.0969C15.3705 45.9309 14.7973 45.9611 13.5453 46.5496C13.1984 46.7156 13.2588 46.7457 13.2135 46.8363C14.2995 47.3493 15.1744 47.4851 16.5018 46.9268C16.8487 46.7759 17.1051 46.5647 17.3917 46.4289C17.3012 45.433 16.6375 43.3205 15.5817 42.9282C15.4308 43.562 15.5213 44.2561 15.7174 44.8294C15.9889 45.5688 16.2453 45.7197 16.6979 46.0969Z" fill="#A3A597"/>
<path fill-rule="evenodd" clip-rule="evenodd" d="M36.6087 46.444C37.1367 46.625 37.6797 47.2739 39.2484 47.2739C39.9724 47.2739 40.3042 47.0324 40.802 46.8363C40.6964 46.6703 40.7718 46.7759 40.6512 46.6703C40.6059 46.6401 40.5305 46.5949 40.4853 46.5798C39.2936 45.946 38.5696 45.946 37.3026 46.0969C37.7702 45.6442 37.921 45.6593 38.2529 44.8747C38.4942 44.2862 38.5696 43.6072 38.4188 42.9282C37.4987 43.2904 36.7143 45.0558 36.6087 46.444Z" fill="#A3A597"/>
<path fill-rule="evenodd" clip-rule="evenodd" d="M10.7694 39.3673C10.8146 39.4427 10.7996 39.3673 10.7996 39.488C10.7845 39.6842 10.5281 40.1067 10.5733 40.9064C10.6186 41.6005 10.8599 41.8117 11.0409 42.2795C10.4375 42.0682 10.2565 41.857 9.44202 41.7363C8.899 41.6608 8.00906 41.5854 7.57162 41.8419C7.75263 42.3097 8.59732 42.8076 9.18559 42.9434C10.0454 43.1396 10.8297 43.0641 11.6593 42.868C11.7649 42.2342 11.8102 41.5099 11.78 40.8309C11.7197 40.0312 11.5387 39.7898 11.2973 39.2013L10.7694 39.3673Z" fill="#A3A597"/>
<path fill-rule="evenodd" clip-rule="evenodd" d="M10.272 16.7035C10.468 16.6432 11.2222 16.3565 11.3429 16.2358C11.4032 16.1754 11.7803 15.3153 11.8558 15.1795C12.7457 13.3387 13.8016 12.041 15.2496 10.7283C15.506 10.4868 15.4004 10.5925 15.4457 10.17C15.4759 9.92854 15.5362 9.70221 15.5815 9.46078C15.0083 9.76257 14.4049 10.5019 13.9675 10.9395C13.4094 11.4978 13.0323 11.9656 12.5194 12.6446C11.9613 13.3538 10.5435 15.5718 10.272 16.7035Z" fill="white"/>
<path fill-rule="evenodd" clip-rule="evenodd" d="M24.4052 41.9928L26.4415 41.9777L26.4265 41.1629L25.3706 41.1478V37.4811L24.4052 37.4962V38.5675V41.2685V41.9928Z" fill="#FDC624"/>
<path fill-rule="evenodd" clip-rule="evenodd" d="M26.2456 22.3016L28.8099 22.2865C28.9607 22.0752 29.2322 21.8942 29.4736 21.7433C29.6395 21.6226 29.6395 21.6527 29.8054 21.5169L31.4948 20.34C31.0272 20.4305 30.5294 20.6267 30.0769 20.7776L27.392 21.6678C26.9244 21.8187 26.3965 21.9696 26.2456 22.3016Z" fill="white"/>
<path fill-rule="evenodd" clip-rule="evenodd" d="M12.7311 14.3497L12.8819 14.3346C12.897 14.3195 12.9121 14.3044 12.9121 14.3044L13.8925 13.2633C14.0132 13.1425 14.0886 13.1124 14.1942 12.9916C15.6121 11.5129 16.14 11.4224 18.4177 10.9395C17.9501 10.7886 16.7886 10.683 16.2758 10.8037C15.7177 10.9094 15.0691 11.4827 14.8277 11.7543L12.7311 14.3497Z" fill="white"/>
<path fill-rule="evenodd" clip-rule="evenodd" d="M46.6091 14.6213C46.9409 14.576 48.7057 13.731 48.9169 13.55L48.7359 13.0973L46.413 14.1837L46.6091 14.6213Z" fill="white"/>
<path d="M5.37029 14.5911L5.9133 14.8174L6.19989 14.2139L8.64347 15.2701L8.96023 14.5609L6.51665 13.5047L6.77308 12.9011L6.23006 12.6748L5.37029 14.5911ZM6.59207 11.9958L9.39766 13.6405L10.2725 12.207L9.75967 11.8901L9.29207 12.6597L8.62839 12.2825L9.03565 11.6035L8.5228 11.3017L8.11554 11.9807L7.51218 11.6185L7.94961 10.9244L7.43677 10.6227L6.59207 11.9958ZM8.11554 9.62679L10.3781 12.041L10.8608 11.3922L10.4837 11.0452L10.8608 10.5321L11.3284 10.7736L11.796 10.1247L8.77922 8.73654L8.11554 9.62679ZM8.85464 9.49099L10.363 10.2756L10.0764 10.6528L8.85464 9.49099ZM9.68425 7.52942L11.977 9.83804L12.4597 9.37028L10.6044 7.57469L12.7613 9.0685L13.2591 8.60074L11.7658 6.42792L13.5759 8.29896L14.0586 7.8312L11.7809 5.53767L10.9513 6.3223L12.0977 7.90665L10.5139 6.74479L9.68425 7.52942ZM13.5608 4.22493L15.3708 6.89568L16.4569 6.1865C16.5926 6.08087 16.7284 5.99034 16.7887 5.82436C16.834 5.73383 16.8491 5.65838 16.8491 5.6282C16.8792 5.37169 16.7586 5.19062 16.6228 4.99446C16.5474 4.88884 16.3965 4.66251 16.2608 4.58706C16.2005 4.54179 16.1401 4.52671 16.0647 4.52671C15.9289 4.51162 15.8384 4.55688 15.7329 4.63233C15.8083 4.55688 15.8686 4.51162 15.9139 4.3909C15.9289 4.36073 15.9289 4.33055 15.9289 4.27019C15.9289 4.08912 15.7479 3.80243 15.7329 3.80243C15.5066 3.45538 15.2803 3.37994 15.0843 3.37994C14.8882 3.37994 14.7373 3.45538 14.5714 3.56101L13.5608 4.22493ZM14.5111 4.24001L14.6921 4.13439C14.7675 4.08912 14.9032 3.99859 15.0692 4.14948C15.1295 4.20984 15.1597 4.27019 15.1748 4.30037C15.1748 4.30037 15.3105 4.45126 15.2653 4.58706C15.2502 4.6776 15.1446 4.73795 15.1295 4.75304L14.9334 4.87375L14.5111 4.24001ZM15.2502 5.32642L15.4764 5.19062C15.5368 5.16044 15.5669 5.14535 15.5971 5.14535C15.7932 5.10009 15.9139 5.32642 15.9289 5.34151C16.0044 5.44714 16.0647 5.53767 16.0496 5.67347C16.0345 5.764 15.9893 5.82436 15.8384 5.91489L15.7027 6.00543L15.2502 5.32642ZM17.1055 2.203L17.3921 3.41012L16.5775 2.44442L15.8535 2.80656L17.3921 4.28528L17.9351 5.37169L18.644 5.03973L18.101 3.95332L17.8446 1.84086L17.1055 2.203ZM18.3725 1.59944L18.5535 2.15773L19.2021 1.94648L20.0619 4.43617L20.801 4.17966L19.9563 1.70506L20.5748 1.49381L20.3938 0.935519L18.3725 1.59944ZM21.1329 0.739362L21.7965 3.89297L23.4708 3.54592L23.3351 2.95745L22.4451 3.13852L22.2943 2.41424L23.0787 2.26335L22.958 1.67488L22.1736 1.84086L22.0228 1.16185L22.8524 0.995875L22.7317 0.422492L21.1329 0.739362ZM26.7591 0L26.0049 0.0603561L25.9446 2.35389L25.4619 0.105623L24.6926 0.165979L24.5569 2.44442L24.1647 0.196157L23.3954 0.256513L24.1345 3.42521L25.0094 3.34976L25.1753 1.34292L25.658 3.30449L26.5027 3.24414L26.7591 0ZM29.625 1.04114C29.6401 0.905341 29.6401 0.76954 29.61 0.633739C29.5798 0.482849 29.5044 0.392314 29.4742 0.347047C29.2178 0.0754451 28.7653 0.0603561 28.6898 0.0452671C28.2826 0.015089 27.815 0.135801 27.634 0.528116C27.5736 0.648828 27.5586 0.784629 27.5435 0.92043L27.4379 2.38406C27.4379 2.4746 27.3926 2.82165 27.6641 3.07816C27.8904 3.30449 28.3127 3.33467 28.3731 3.33467C28.539 3.34976 28.6748 3.33467 28.7502 3.33467C29.0971 3.28941 29.263 3.1536 29.3384 3.03289C29.4742 2.85182 29.5044 2.68585 29.5194 2.4746L29.625 1.04114ZM28.3278 0.950608C28.3429 0.829896 28.358 0.709184 28.4636 0.648828C28.5088 0.61865 28.5692 0.603561 28.6144 0.61865C28.6446 0.61865 28.6898 0.61865 28.7502 0.648828C28.8558 0.724273 28.8558 0.829896 28.8407 0.950608L28.7351 2.48969C28.72 2.6104 28.7049 2.65567 28.6597 2.70093C28.6295 2.73111 28.5541 2.79147 28.4485 2.77638C28.3882 2.77638 28.3429 2.76129 28.3278 2.7462C28.2222 2.68585 28.2222 2.56513 28.2222 2.44442L28.3278 0.950608ZM30.7111 0.30178L30.0625 3.45538L30.8167 3.60628L31.0882 2.27844L31.239 2.30862C31.3597 2.3388 31.4502 2.36898 31.5105 2.4746C31.5558 2.58022 31.5407 2.71602 31.5256 2.82165L31.4049 3.33467C31.3748 3.51574 31.3748 3.54592 31.42 3.72699L32.2194 3.89297C32.1591 3.72699 32.144 3.68172 32.1591 3.51574L32.2949 2.882C32.325 2.71602 32.3703 2.51987 32.2949 2.32371C32.2194 2.17282 32.1139 2.14264 32.0384 2.12755C32.1591 2.11246 32.2044 2.11246 32.2647 2.08228C32.4155 2.00684 32.506 1.85595 32.5815 1.52399C32.6569 1.16185 32.5965 0.965697 32.491 0.829896C32.3401 0.663917 32.1591 0.603561 31.9479 0.558294L30.7111 0.30178ZM31.3597 0.995875L31.5558 1.04114C31.6161 1.05623 31.6613 1.07132 31.7066 1.08641C31.8273 1.17694 31.8273 1.32783 31.8122 1.44855C31.782 1.59944 31.7066 1.75033 31.5558 1.79559C31.4954 1.79559 31.4502 1.79559 31.3898 1.79559L31.2088 1.75033L31.3597 0.995875ZM35.1457 1.5089L34.0597 2.6104L34.5574 1.28257L33.8334 1.02605L32.687 4.04386L33.4111 4.30037L33.7127 3.48556L34.0898 3.1536L34.1351 4.57197L34.9194 4.85866L34.8139 2.80656L35.8848 1.7805L35.1457 1.5089ZM38.0418 3.7119C38.1021 3.5761 38.1474 3.48556 38.1625 3.33467C38.1926 3.00271 37.9815 2.77638 37.725 2.6104C37.6647 2.58022 37.6044 2.53496 37.544 2.50478C37.1217 2.29353 36.82 2.3388 36.6239 2.42933C36.3977 2.53496 36.2619 2.7462 36.2167 2.82165C36.096 3.04798 36.1262 3.25923 36.1412 3.36485C36.1563 3.4403 36.1563 3.47047 36.1865 3.54592C36.2619 3.74208 36.4127 4.02877 36.4278 4.04386C36.5032 4.19475 36.6541 4.42108 36.6692 4.60215C36.6692 4.63233 36.6692 4.72286 36.6239 4.8134C36.5032 5.02464 36.3072 4.99446 36.2317 4.9492C36.1865 4.93411 36.1563 4.88884 36.1262 4.84357C36.0658 4.73795 36.096 4.66251 36.1111 4.61724C36.1111 4.60215 36.1262 4.57197 36.1412 4.54179L36.277 4.28528L35.5681 3.92314L35.4172 4.20984C35.4021 4.24001 35.3267 4.3909 35.3116 4.51162C35.2965 4.69268 35.3418 4.82849 35.372 4.88884C35.4926 5.17553 35.7189 5.31133 35.9753 5.44714C36.2619 5.59803 36.4731 5.6282 36.6239 5.6282C36.82 5.6282 37.1368 5.52258 37.363 5.10009C37.5591 4.73795 37.4686 4.49653 37.4083 4.33055C37.3781 4.27019 37.3479 4.19475 37.3027 4.1193C37.1066 3.74208 36.9558 3.48556 36.9256 3.30449C36.9256 3.21396 36.9558 3.13852 36.9708 3.10834C37.0312 2.98763 37.1519 2.94236 37.2876 3.00271C37.3329 3.03289 37.3781 3.07816 37.4083 3.13852C37.4234 3.19887 37.3932 3.24414 37.3781 3.30449L37.2424 3.54592L37.9362 3.90806L38.0418 3.7119ZM40.1988 4.13439L38.7206 6.02052C38.6451 6.14123 38.5697 6.23176 38.5396 6.35248C38.5094 6.42792 38.4943 6.53354 38.5245 6.69952C38.5697 6.89568 38.6602 7.07675 38.9921 7.31817C39.2334 7.51433 39.4748 7.65013 39.8217 7.63504C40.0932 7.60486 40.2289 7.46906 40.41 7.27291L41.8731 5.38678L41.2546 4.91902L39.7613 6.83532C39.7161 6.89568 39.6859 6.91077 39.6558 6.92586C39.6105 6.95604 39.4898 6.97113 39.3692 6.88059C39.339 6.85041 39.2183 6.75988 39.2636 6.62408C39.2636 6.5939 39.2787 6.56372 39.3239 6.50337L40.8172 4.60215L40.1988 4.13439ZM42.6876 6.11105L40.3496 8.35932L40.8474 8.84216L42.3708 7.34835L41.3301 9.3401L41.9183 9.92857L44.2563 7.68031L43.7887 7.19746L42.2049 8.75163L43.291 6.71461L42.6876 6.11105ZM44.6485 8.26878L42.2803 10.4869L42.8234 11.0452L45.2066 8.84216L44.6485 8.26878ZM45.825 9.62679L45.3122 9.94366L45.6742 10.517L43.4116 11.9052L43.834 12.5541L46.0965 11.1659L46.4435 11.7242L46.9563 11.4073L45.825 9.62679ZM47.3636 12.0863L44.3921 13.4141L45.101 14.9381L45.644 14.6967L45.2669 13.8819L45.9608 13.565L46.2926 14.2893L46.8357 14.0479L46.5189 13.3236L47.1524 13.0369L47.4993 13.7914L48.0424 13.5499L47.3636 12.0863ZM48.3893 14.3647L45.3122 15.421L45.7195 16.5677C45.7647 16.6885 45.81 16.779 45.8401 16.8243C45.9005 16.9148 45.991 17.0053 46.0965 17.0506C46.2926 17.1713 46.5189 17.1562 46.7301 17.1109C46.7753 17.0808 46.8206 17.0808 46.8658 17.0657L48.2384 16.5979C48.4949 16.4923 48.6005 16.4319 48.691 16.3414C48.9474 16.0547 48.872 15.7228 48.7664 15.4059L48.3893 14.3647ZM48.1329 15.2701C48.1781 15.4059 48.2234 15.5115 48.2234 15.5719C48.2535 15.768 48.0876 15.8284 48.0273 15.8435C47.9971 15.8586 47.982 15.8736 47.9519 15.8736L46.5943 16.3414C46.5491 16.3565 46.3681 16.4319 46.2474 16.2961C46.187 16.2358 46.1569 16.1302 46.0965 15.9642L48.1329 15.2701Z" fill="#23262B"/>
</svg>
